<?xml version="1.0" encoding="UTF-8"?>
<svg width="400" height="400" viewBox="0 0 400 400" xmlns="http://www.w3.org/2000/svg">
    <!-- Background gradient -->
    <defs>
        <linearGradient id="bgGradient" x1="0%" y1="0%" x2="100%" y2="100%">
            <stop offset="0%" style="stop-color:#00e5ff;stop-opacity:0.1" />
            <stop offset="100%" style="stop-color:#4a69bd;stop-opacity:0.1" />
        </linearGradient>
    </defs>
    <rect x="0" y="0" width="400" height="400" fill="url(#bgGradient)" />
    
    <!-- Stairs -->
    <path d="M50,350 L100,300 L150,300 L200,250 L250,250 L300,200" 
          stroke="#4a69bd" stroke-width="4" fill="none" />
    
    <!-- Person climbing stairs -->
    <g transform="translate(80, 270)">
        <!-- Head -->
        <circle cx="15" cy="15" r="15" fill="#ff7675" />
        <!-- Body -->
        <path d="M15,30 L15,60" stroke="#ff7675" stroke-width="10" />
        <!-- Arms -->
        <path d="M15,40 L0,50 M15,40 L30,30" stroke="#ff7675" stroke-width="6" />
        <!-- Legs -->
        <path d="M15,60 L5,80 M15,60 L25,80" stroke="#ff7675" stroke-width="6" />
    </g>
    
    <!-- Analytics elements -->
    <!-- Pie chart -->
    <circle cx="250" cy="100" r="30" fill="none" stroke="#4a69bd" stroke-width="3" />
    <path d="M250,100 L250,70 A30,30 0 0,1 276,115 Z" fill="#4a69bd" />
    
    <!-- Bar chart -->
    <g transform="translate(150, 150)">
        <rect x="0" y="0" width="10" height="30" fill="#4a69bd" opacity="0.7" />
        <rect x="15" y="10" width="10" height="20" fill="#4a69bd" opacity="0.7" />
        <rect x="30" y="5" width="10" height="25" fill="#4a69bd" opacity="0.7" />
        <rect x="45" y="0" width="10" height="30" fill="#4a69bd" opacity="0.7" />
    </g>
    
    <!-- Line graph -->
    <path d="M50,150 L80,130 L110,140 L140,120 L170,110" 
          stroke="#4a69bd" stroke-width="2" fill="none" />
    <circle cx="50" cy="150" r="3" fill="#4a69bd" />
    <circle cx="80" cy="130" r="3" fill="#4a69bd" />
    <circle cx="110" cy="140" r="3" fill="#4a69bd" />
    <circle cx="140" cy="120" r="3" fill="#4a69bd" />
    <circle cx="170" cy="110" r="3" fill="#4a69bd" />
    
    <!-- Growth arrow -->
    <path d="M300,300 Q330,250 360,200" fill="none" stroke="#4a69bd" stroke-width="3" stroke-dasharray="5,3" />
    <polygon points="360,200 355,210 365,210" fill="#4a69bd" />
    
    <!-- Decorative elements -->
    <circle cx="100" cy="100" r="50" fill="#4a69bd" opacity="0.05" />
    <circle cx="300" cy="300" r="70" fill="#4a69bd" opacity="0.05" />
</svg>