<svg xmlns="http://www.w3.org/2000/svg" style="display: none;">
  <!-- Endorsement Icon -->
  <symbol id="icon-endorsement" viewBox="0 0 24 24">
    <path d="M12 2L15.09 8.26L22 9.27L17 14.14L18.18 21.02L12 17.77L5.82 21.02L7 14.14L2 9.27L8.91 8.26L12 2Z" fill="currentColor"/>
  </symbol>
  
  <!-- Connection Icon -->
  <symbol id="icon-connection" viewBox="0 0 24 24">
    <path d="M16 7C16 9.21 14.21 11 12 11C9.79 11 8 9.21 8 7C8 4.79 9.79 3 12 3C14.21 3 16 4.79 16 7ZM2 20V19C2 15.69 4.69 13 8 13H16C19.31 13 22 15.69 22 19V20" stroke="currentColor" stroke-width="2" fill="none" stroke-linecap="round" stroke-linejoin="round"/>
  </symbol>
  
  <!-- Activity Icon -->
  <symbol id="icon-activity" viewBox="0 0 24 24">
    <path d="M22 12H18L15 21L9 3L6 12H2" stroke="currentColor" stroke-width="2" fill="none" stroke-linecap="round" stroke-linejoin="round"/>
  </symbol>
  
  <!-- Education Icon -->
  <symbol id="icon-education" viewBox="0 0 24 24">
    <path d="M12 1L1 7L12 13L21 8.09V17C21 18.11 20.11 19 19 19C17.89 19 17 18.11 17 17V10.5L12 13L1 7" stroke="currentColor" stroke-width="2" fill="none" stroke-linecap="round" stroke-linejoin="round"/>
  </symbol>
  
  <!-- Certificate Icon -->
  <symbol id="icon-certificate" viewBox="0 0 24 24">
    <path d="M12 15C15.866 15 19 11.866 19 8C19 4.13401 15.866 1 12 1C8.13401 1 5 4.13401 5 8C5 11.866 8.13401 15 12 15Z" stroke="currentColor" stroke-width="2" fill="none"/>
    <path d="M8.21 13.89L7 23L12 20L17 23L15.79 13.88" stroke="currentColor" stroke-width="2" fill="none"/>
  </symbol>
  
  <!-- Post Icon -->
  <symbol id="icon-post" viewBox="0 0 24 24">
    <rect x="3" y="3" width="18" height="18" rx="2" stroke="currentColor" stroke-width="2" fill="none"/>
    <line x1="8" y1="8" x2="16" y2="8" stroke="currentColor" stroke-width="2" stroke-linecap="round"/>
    <line x1="8" y1="12" x2="16" y2="12" stroke="currentColor" stroke-width="2" stroke-linecap="round"/>
    <line x1="8" y1="16" x2="12" y2="16" stroke="currentColor" stroke-width="2" stroke-linecap="round"/>
  </symbol>
  
  <!-- Recommendation Icon -->
  <symbol id="icon-recommendation" viewBox="0 0 24 24">
    <path d="M21 15C21 16.1 20.1 17 19 17H7L3 21V5C3 3.9 3.9 3 5 3H19C20.1 3 21 3.9 21 5V15Z" stroke="currentColor" stroke-width="2" fill="none"/>
  </symbol>
  
  <!-- Skills Icon -->
  <symbol id="icon-skills" viewBox="0 0 24 24">
    <path d="M14.7 6.3C14.3 5.9 13.7 5.9 13.3 6.3L12 7.6L10.7 6.3C10.3 5.9 9.7 5.9 9.3 6.3C8.9 6.7 8.9 7.3 9.3 7.7L11.3 9.7C11.5 9.9 11.7 10 12 10C12.3 10 12.5 9.9 12.7 9.7L14.7 7.7C15.1 7.3 15.1 6.7 14.7 6.3Z" fill="currentColor"/>
    <path d="M12 2C6.5 2 2 6.5 2 12C2 17.5 6.5 22 12 22C17.5 22 22 17.5 22 12C22 6.5 17.5 2 12 2ZM12 20C7.6 20 4 16.4 4 12C4 7.6 7.6 4 12 4C16.4 4 20 7.6 20 12C20 16.4 16.4 20 12 20Z" fill="currentColor"/>
  </symbol>
  
  <!-- Company Icon -->
  <symbol id="icon-company" viewBox="0 0 24 24">
    <path d="M3 21H21M3 7V21M21 7V21M8 21V7M16 21V7M3 7H21M3 12H8M16 12H21M3 16H8M16 16H21" stroke="currentColor" stroke-width="2" stroke-linecap="round"/>
    <path d="M12 3L17 7H7L12 3Z" fill="currentColor"/>
  </symbol>
</svg>